STARTFONT 2.1
COMMENT
COMMENT Converted from OpenType font "CircularStd-Book.otf" by "otf2bdf 3.0".
COMMENT
FONT -FreeType-Circular Std Book-Medium-R-Normal--25-180-100-100-P-125-ISO10646-1
SIZE 18 100 100
FONTBOUNDINGBOX 38 28 -1 -6
STARTPROPERTIES 19
FOUNDRY "FreeType"
FAMILY_NAME "Circular Std Book"
WEIGHT_NAME "Medium"
SLANT "R"
SETWIDTH_NAME "Normal"
ADD_STYLE_NAME ""
PIXEL_SIZE 25
POINT_SIZE 180
RESOLUTION_X 100
RESOLUTION_Y 100
SPACING "P"
AVERAGE_WIDTH 125
CHARSET_REGISTRY "ISO10646"
CHARSET_ENCODING "1"
FONT_ASCENT 24
FONT_DESCENT 6
COPYRIGHT "Generated in 2013 by FontLab Studio. Copyright info pending."
_OTF_FONTFILE "CircularStd-Book.otf"
_OTF_PSNAME "CircularStd-Book"
ENDPROPERTIES
CHARS 332
STARTCHAR 0000
ENCODING 0
SWIDTH 0 0
DWIDTH 0 0
BBX 0 0 0 0
BITMAP
ENDCHAR
STARTCHAR 000D
ENCODING 13
SWIDTH 240 0
DWIDTH 6 0
BBX 0 0 0 0
BITMAP
ENDCHAR
STARTCHAR 0020
ENCODING 32
SWIDTH 240 0
DWIDTH 6 0
BBX 0 0 0 0
BITMAP
ENDCHAR
STARTCHAR 0021
ENCODING 33
SWIDTH 320 0
DWIDTH 8 0
BBX 4 18 2 0
BITMAP
E0
E0
60
60
60
60
60
60
60
60
60
60
60
00
00
60
F0
60
ENDCHAR
STARTCHAR 0022
ENCODING 34
SWIDTH 360 0
DWIDTH 9 0
BBX 7 6 1 10
BITMAP
E6
EE
E6
E6
46
44
ENDCHAR
STARTCHAR 0023
ENCODING 35
SWIDTH 720 0
DWIDTH 18 0
BBX 16 16 1 0
BITMAP
031C
0318
0718
0618
7FFF
7FFF
0630
0C30
0C30
0C30
FFFE
FFFE
1860
1860
18E0
18C0
ENDCHAR
STARTCHAR 0024
ENCODING 36
SWIDTH 600 0
DWIDTH 15 0
BBX 12 22 1 -3
BITMAP
0300
0300
0300
1FC0
3FE0
7370
7330
6300
7300
7F00
3FC0
0FE0
03F0
0330
E330
E330
7370
3FE0
1FC0
0300
0300
0300
ENDCHAR
STARTCHAR 0025
ENCODING 37
SWIDTH 800 0
DWIDTH 20 0
BBX 18 16 1 0
BITMAP
1C0300
7F0600
630C00
E31C00
E31800
633000
7E7000
3C6000
00CF00
019F80
0398C0
0330C0
0630C0
0C18C0
1C1F80
180F00
ENDCHAR
STARTCHAR 0026
ENCODING 38
SWIDTH 680 0
DWIDTH 17 0
BBX 15 18 2 0
BITMAP
1F00
3F80
71C0
61C0
60C0
71C0
7380
3F00
1E04
3E0C
771C
E398
C1F8
C0F0
E0F0
F3F8
7F9C
3E0E
ENDCHAR
STARTCHAR 0027
ENCODING 39
SWIDTH 200 0
DWIDTH 5 0
BBX 3 6 1 10
BITMAP
E0
E0
E0
E0
40
40
ENDCHAR
STARTCHAR 0028
ENCODING 40
SWIDTH 320 0
DWIDTH 8 0
BBX 6 24 1 -4
BITMAP
04
0C
1C
18
30
30
60
60
60
60
C0
C0
C0
C0
60
60
60
60
30
30
38
1C
0C
04
ENDCHAR
STARTCHAR 0029
ENCODING 41
SWIDTH 320 0
DWIDTH 8 0
BBX 6 24 0 -4
BITMAP
40
E0
70
30
38
18
18
0C
0C
0C
0C
0C
0C
0C
0C
0C
0C
18
18
38
30
60
E0
40
ENDCHAR
STARTCHAR 002A
ENCODING 42
SWIDTH 440 0
DWIDTH 11 0
BBX 9 9 1 9
BITMAP
1800
1800
9880
FF80
7F00
1C00
3600
7700
2200
ENDCHAR
STARTCHAR 002B
ENCODING 43
SWIDTH 560 0
DWIDTH 14 0
BBX 12 12 1 1
BITMAP
0600
0600
0600
0600
0600
FFF0
FFF0
0600
0600
0600
0600
0600
ENDCHAR
STARTCHAR 002C
ENCODING 44
SWIDTH 280 0
DWIDTH 7 0
BBX 4 7 2 -4
BITMAP
E0
F0
F0
20
60
C0
80
ENDCHAR
STARTCHAR 002D
ENCODING 45
SWIDTH 360 0
DWIDTH 9 0
BBX 7 2 1 6
BITMAP
FE
FE
ENDCHAR
STARTCHAR 002E
ENCODING 46
SWIDTH 280 0
DWIDTH 7 0
BBX 3 3 2 0
BITMAP
E0
E0
E0
ENDCHAR
STARTCHAR 002F
ENCODING 47
SWIDTH 440 0
DWIDTH 11 0
BBX 11 18 0 0
BITMAP
00E0
00C0
01C0
0180
0380
0300
0700
0600
0600
0C00
0C00
1800
1800
3000
3000
6000
6000
E000
ENDCHAR
STARTCHAR 0030
ENCODING 48
SWIDTH 600 0
DWIDTH 15 0
BBX 13 16 1 0
BITMAP
0F80
1FE0
38F0
7030
6038
6038
E018
E018
E018
E018
E038
6038
7030
38F0
1FE0
0F80
ENDCHAR
STARTCHAR 0031
ENCODING 49
SWIDTH 360 0
DWIDTH 9 0
BBX 6 16 1 0
BITMAP
0C
1C
3C
FC
FC
0C
0C
0C
0C
0C
0C
0C
0C
0C
0C
0C
ENDCHAR
STARTCHAR 0032
ENCODING 50
SWIDTH 520 0
DWIDTH 13 0
BBX 11 16 1 0
BITMAP
1F00
3FC0
71E0
E0E0
E060
E060
00E0
01C0
03C0
0F00
1E00
3800
7000
E000
FFE0
FFE0
ENDCHAR
STARTCHAR 0033
ENCODING 51
SWIDTH 560 0
DWIDTH 14 0
BBX 12 16 1 0
BITMAP
FFE0
FFE0
00E0
01C0
0780
0E00
0F80
0FE0
00E0
0070
0070
E070
E070
70E0
3FC0
1F80
ENDCHAR
STARTCHAR 0034
ENCODING 52
SWIDTH 560 0
DWIDTH 14 0
BBX 13 16 1 0
BITMAP
03C0
03C0
07C0
0EC0
0CC0
18C0
38C0
70C0
60C0
C0C0
FFF8
FFF8
00C0
00C0
00C0
00C0
ENDCHAR
STARTCHAR 0035
ENCODING 53
SWIDTH 560 0
DWIDTH 14 0
BBX 12 16 1 0
BITMAP
3FE0
3FE0
3000
3000
7000
6000
6F80
7FE0
70E0
0070
0070
C070
E070
70E0
3FC0
1F00
ENDCHAR
STARTCHAR 0036
ENCODING 54
SWIDTH 600 0
DWIDTH 15 0
BBX 13 16 1 0
BITMAP
03E0
0FF0
1E30
3800
7000
6000
67C0
FFE0
F870
F030
E038
6038
7030
38F0
3FE0
0F80
ENDCHAR
STARTCHAR 0037
ENCODING 55
SWIDTH 480 0
DWIDTH 12 0
BBX 12 16 0 0
BITMAP
FFF0
FFF0
0070
00E0
01C0
0380
0300
0700
0600
0E00
0C00
1C00
1C00
1800
1800
1800
ENDCHAR
STARTCHAR 0038
ENCODING 56
SWIDTH 560 0
DWIDTH 14 0
BBX 12 16 1 0
BITMAP
1F80
3FC0
70E0
6060
6060
6060
70E0
3FC0
3FC0
70E0
E070
E070
E070
70E0
7FE0
1F80
ENDCHAR
STARTCHAR 0039
ENCODING 57
SWIDTH 600 0
DWIDTH 15 0
BBX 12 16 1 0
BITMAP
0F80
3FC0
70E0
E070
E070
E070
E070
70F0
7FB0
1F30
0070
0060
00E0
43C0
7F80
7E00
ENDCHAR
STARTCHAR 003A
ENCODING 58
SWIDTH 280 0
DWIDTH 7 0
BBX 3 12 2 0
BITMAP
E0
E0
E0
00
00
00
00
00
00
E0
E0
E0
ENDCHAR
STARTCHAR 003B
ENCODING 59
SWIDTH 280 0
DWIDTH 7 0
BBX 4 15 2 -3
BITMAP
E0
E0
E0
00
00
00
00
00
00
E0
E0
F0
20
20
C0
ENDCHAR
STARTCHAR 003C
ENCODING 60
SWIDTH 480 0
DWIDTH 12 0
BBX 10 12 1 1
BITMAP
0040
01C0
07C0
1F00
7C00
E000
E000
7C00
1F00
07C0
01C0
0040
ENDCHAR
STARTCHAR 003D
ENCODING 61
SWIDTH 600 0
DWIDTH 15 0
BBX 11 7 2 4
BITMAP
FFE0
FFE0
0000
0000
0000
FFE0
FFE0
ENDCHAR
STARTCHAR 003E
ENCODING 62
SWIDTH 480 0
DWIDTH 12 0
BBX 10 12 1 1
BITMAP
8000
E000
F800
3E00
0F80
01C0
01C0
0F80
3E00
F800
E000
8000
ENDCHAR
STARTCHAR 003F
ENCODING 63
SWIDTH 520 0
DWIDTH 13 0
BBX 11 18 1 0
BITMAP
1F00
7F80
71C0
E0E0
C0E0
C0E0
00E0
01C0
0380
0700
0E00
0C00
0C00
0000
0000
0C00
1E00
0C00
ENDCHAR
STARTCHAR 0040
ENCODING 64
SWIDTH 840 0
DWIDTH 21 0
BBX 19 19 1 -1
BITMAP
01F800
07FE00
1E0700
380180
3000C0
60F6C0
63FC60
C31C60
C60C60
C60C60
C60840
C618C0
E739C0
63EF80
71C600
380000
1C0300
0FFE00
01F800
ENDCHAR
STARTCHAR 0041
ENCODING 65
SWIDTH 680 0
DWIDTH 17 0
BBX 17 18 0 0
BITMAP
01C000
01E000
03E000
036000
037000
073000
063800
0E3800
0C1800
0C1C00
1C0C00
1FFE00
3FFE00
380600
300700
700300
600380
E00380
ENDCHAR
STARTCHAR 0042
ENCODING 66
SWIDTH 600 0
DWIDTH 15 0
BBX 12 18 2 0
BITMAP
FF80
FFC0
E1E0
E0E0
E060
E060
E060
E0C0
FF80
FFC0
E0E0
E070
E070
E070
E070
E0E0
FFE0
FF80
ENDCHAR
STARTCHAR 0043
ENCODING 67
SWIDTH 760 0
DWIDTH 19 0
BBX 17 18 1 0
BITMAP
03F000
0FFC00
1F1E00
380700
700300
600380
E00000
E00000
E00000
E00000
E00000
E00000
600380
700300
380700
1F1E00
0FFC00
03F000
ENDCHAR
STARTCHAR 0044
ENCODING 68
SWIDTH 720 0
DWIDTH 18 0
BBX 15 18 2 0
BITMAP
FF80
FFE0
E0F8
E038
E01C
E00C
E00E
E00E
E00E
E00E
E00E
E00E
E00C
E01C
E038
E0F8
FFE0
FF80
ENDCHAR
STARTCHAR 0045
ENCODING 69
SWIDTH 600 0
DWIDTH 15 0
BBX 11 18 2 0
BITMAP
FFE0
FFE0
E000
E000
E000
E000
E000
E000
FFC0
FFC0
E000
E000
E000
E000
E000
E000
FFE0
FFE0
ENDCHAR
STARTCHAR 0046
ENCODING 70
SWIDTH 560 0
DWIDTH 14 0
BBX 11 18 2 0
BITMAP
FFE0
FFE0
E000
E000
E000
E000
E000
E000
FFC0
FFC0
E000
E000
E000
E000
E000
E000
E000
E000
ENDCHAR
STARTCHAR 0047
ENCODING 71
SWIDTH 760 0
DWIDTH 19 0
BBX 17 18 1 0
BITMAP
03F000
0FFC00
1E1E00
380700
700380
600300
E00000
E00000
E00000
E0FF80
E0FF80
E00380
600380
700380
380780
1E3F80
0FFB80
03E180
ENDCHAR
STARTCHAR 0048
ENCODING 72
SWIDTH 720 0
DWIDTH 18 0
BBX 14 18 2 0
BITMAP
E00C
E00C
E00C
E00C
E00C
E00C
E00C
E00C
FFFC
FFFC
E00C
E00C
E00C
E00C
E00C
E00C
E00C
E00C
ENDCHAR
STARTCHAR 0049
ENCODING 73
SWIDTH 280 0
DWIDTH 7 0
BBX 3 18 2 0
BITMAP
E0
E0
E0
E0
E0
E0
E0
E0
E0
E0
E0
E0
E0
E0
E0
E0
E0
E0
ENDCHAR
STARTCHAR 004A
ENCODING 74
SWIDTH 520 0
DWIDTH 13 0
BBX 11 18 0 0
BITMAP
0060
0060
0060
0060
0060
0060
0060
0060
0060
0060
0060
E060
E060
6060
70E0
79E0
3FC0
1F00
ENDCHAR
STARTCHAR 004B
ENCODING 75
SWIDTH 680 0
DWIDTH 17 0
BBX 14 18 2 0
BITMAP
E01C
E038
E070
E0E0
E1C0
E380
E700
EE00
FE00
FF00
FB80
F380
E1C0
E0E0
E070
E070
E038
E01C
ENDCHAR
STARTCHAR 004C
ENCODING 76
SWIDTH 560 0
DWIDTH 14 0
BBX 11 18 2 0
BITMAP
E000
E000
E000
E000
E000
E000
E000
E000
E000
E000
E000
E000
E000
E000
E000
E000
FFE0
FFE0
ENDCHAR
STARTCHAR 004D
ENCODING 77
SWIDTH 960 0
DWIDTH 24 0
BBX 19 18 2 0
BITMAP
F000F0
F001F0
F801F0
F801F0
FC03F0
FC0370
EC0770
EE0670
E60E70
E70E70
E70C70
E31C70
E39870
E1B870
E1F070
E0F070
E0F070
E0E070
ENDCHAR
STARTCHAR 004E
ENCODING 78
SWIDTH 760 0
DWIDTH 19 0
BBX 15 18 2 0
BITMAP
F00E
F00E
F80E
FC0E
FC0E
EE0E
E70E
E70E
E38E
E1CE
E1CE
E0EE
E07E
E07E
E03E
E01E
E01E
E00E
ENDCHAR
STARTCHAR 004F
ENCODING 79
SWIDTH 800 0
DWIDTH 20 0
BBX 18 18 1 0
BITMAP
03F000
0FFC00
1F3E00
380700
700380
600180
E001C0
E001C0
E001C0
E001C0
E001C0
E001C0
600180
700380
380700
1F1E00
0FFC00
03F000
ENDCHAR
STARTCHAR 0050
ENCODING 80
SWIDTH 600 0
DWIDTH 15 0
BBX 12 18 2 0
BITMAP
FF80
FFE0
E0E0
E070
E030
E030
E030
E070
E0E0
FFE0
FF80
E000
E000
E000
E000
E000
E000
E000
ENDCHAR
STARTCHAR 0051
ENCODING 81
SWIDTH 800 0
DWIDTH 20 0
BBX 18 19 1 -1
BITMAP
03F000
0FFC00
1F3E00
380700
700380
600180
E001C0
E001C0
E001C0
E001C0
E021C0
E071C0
603980
701F80
380F00
1F1F00
0FFF00
03F380
000100
ENDCHAR
STARTCHAR 0052
ENCODING 82
SWIDTH 600 0
DWIDTH 15 0
BBX 12 18 2 0
BITMAP
FF80
FFE0
E0F0
E070
E030
E030
E030
E070
E0F0
FFE0
FF80
E300
E380
E1C0
E1C0
E0E0
E060
E070
ENDCHAR
STARTCHAR 0053
ENCODING 83
SWIDTH 600 0
DWIDTH 15 0
BBX 13 18 1 0
BITMAP
0F80
1FE0
38F0
7030
6030
6000
7000
7800
3FC0
0FE0
00F0
0038
4038
E038
E030
78F0
3FE0
0F80
ENDCHAR
STARTCHAR 0054
ENCODING 84
SWIDTH 600 0
DWIDTH 15 0
BBX 15 18 0 0
BITMAP
FFFE
FFFE
0380
0380
0380
0380
0380
0380
0380
0380
0380
0380
0380
0380
0380
0380
0380
0380
ENDCHAR
STARTCHAR 0055
ENCODING 85
SWIDTH 680 0
DWIDTH 17 0
BBX 13 18 2 0
BITMAP
C038
C038
C038
C038
C038
C038
C038
C038
C038
C038
C038
C038
E038
E038
6070
78F0
3FE0
0F80
ENDCHAR
STARTCHAR 0056
ENCODING 86
SWIDTH 640 0
DWIDTH 16 0
BBX 16 18 0 0
BITMAP
E007
6007
7006
300E
300C
380C
181C
1C18
1C38
0C38
0E30
0E70
0660
0760
03E0
03C0
03C0
01C0
ENDCHAR
STARTCHAR 0057
ENCODING 87
SWIDTH 1000 0
DWIDTH 25 0
BBX 25 18 0 0
BITMAP
E01C0380
601C0300
703E0300
70360700
30360600
30370600
38770E00
38630E00
18638C00
1CE38C00
1CC19C00
0CC1D800
0DC1D800
0F80D800
0F80F800
0780F000
07007000
07007000
ENDCHAR
STARTCHAR 0058
ENCODING 88
SWIDTH 600 0
DWIDTH 15 0
BBX 14 18 1 0
BITMAP
E01C
E038
7030
3070
38E0
1CC0
0DC0
0F80
0700
0700
0F80
0DC0
1CC0
38E0
3070
7030
E038
C01C
ENDCHAR
STARTCHAR 0059
ENCODING 89
SWIDTH 600 0
DWIDTH 15 0
BBX 14 18 1 0
BITMAP
C01C
E018
7038
7070
3860
18E0
1CC0
0DC0
0F80
0700
0700
0700
0700
0700
0700
0700
0700
0700
ENDCHAR
STARTCHAR 005A
ENCODING 90
SWIDTH 640 0
DWIDTH 16 0
BBX 14 18 1 0
BITMAP
FFFC
FFFC
001C
0038
0070
00E0
01C0
01C0
0380
0700
0E00
1C00
1C00
3800
7000
E000
FFFC
FFFC
ENDCHAR
STARTCHAR 005B
ENCODING 91
SWIDTH 280 0
DWIDTH 7 0
BBX 5 24 2 -4
BITMAP
F8
F8
C0
C0
C0
C0
C0
C0
C0
C0
C0
C0
C0
C0
C0
C0
C0
C0
C0
C0
C0
C0
F8
F8
ENDCHAR
STARTCHAR 005C
ENCODING 92
SWIDTH 440 0
DWIDTH 11 0
BBX 11 18 0 0
BITMAP
E000
6000
7000
3000
3000
1800
1800
0C00
0C00
0E00
0600
0700
0300
0380
0180
01C0
00C0
00E0
ENDCHAR
STARTCHAR 005D
ENCODING 93
SWIDTH 280 0
DWIDTH 7 0
BBX 5 24 0 -4
BITMAP
F8
F8
18
18
18
18
18
18
18
18
18
18
18
18
18
18
18
18
18
18
18
18
F8
F8
ENDCHAR
STARTCHAR 005E
ENCODING 94
SWIDTH 520 0
DWIDTH 13 0
BBX 11 9 1 9
BITMAP
0E00
0E00
1F00
1B00
3180
31C0
60C0
E0E0
C060
ENDCHAR
STARTCHAR 005F
ENCODING 95
SWIDTH 560 0
DWIDTH 14 0
BBX 13 2 0 -2
BITMAP
FFF8
FFF8
ENDCHAR
STARTCHAR 0060
ENCODING 96
SWIDTH 280 0
DWIDTH 7 0
BBX 5 3 1 14
BITMAP
E0
70
38
ENDCHAR
STARTCHAR 0061
ENCODING 97
SWIDTH 520 0
DWIDTH 13 0
BBX 11 12 1 0
BITMAP
1F00
3F80
71C0
60C0
00C0
0FC0
7EC0
60C0
E0C0
E1C0
7FC0
3CE0
ENDCHAR
STARTCHAR 0062
ENCODING 98
SWIDTH 600 0
DWIDTH 15 0
BBX 12 18 2 0
BITMAP
C000
C000
C000
C000
C000
C000
CF80
DFC0
F0E0
E060
E070
C070
C070
E070
E060
F0E0
DFC0
CF80
ENDCHAR
STARTCHAR 0063
ENCODING 99
SWIDTH 520 0
DWIDTH 13 0
BBX 11 12 1 0
BITMAP
0F80
3FC0
78E0
6060
E000
C000
C000
E000
6060
78E0
3FC0
0F00
ENDCHAR
STARTCHAR 0064
ENCODING 100
SWIDTH 600 0
DWIDTH 15 0
BBX 12 18 1 0
BITMAP
0070
0070
0070
0070
0070
0070
1F70
3FF0
70F0
6070
E070
C070
C070
E070
E070
70F0
3FF0
1F70
ENDCHAR
STARTCHAR 0065
ENCODING 101
SWIDTH 560 0
DWIDTH 14 0
BBX 12 12 1 0
BITMAP
0F00
3FC0
70E0
6060
E060
FFF0
FFF0
E000
E060
70E0
3FC0
0F00
ENDCHAR
STARTCHAR 0066
ENCODING 102
SWIDTH 360 0
DWIDTH 9 0
BBX 8 18 0 0
BITMAP
0F
1F
1C
18
18
18
FF
FF
18
18
18
18
18
18
18
18
18
18
ENDCHAR
STARTCHAR 0067
ENCODING 103
SWIDTH 560 0
DWIDTH 14 0
BBX 12 17 1 -5
BITMAP
1F70
3FF0
70F0
6070
E070
E070
E070
E070
70F0
3FF0
1F70
0070
E070
E060
70E0
3FC0
1F00
ENDCHAR
STARTCHAR 0068
ENCODING 104
SWIDTH 560 0
DWIDTH 14 0
BBX 10 18 2 0
BITMAP
C000
C000
C000
C000
C000
C000
CF00
DF80
F1C0
E0C0
C0C0
C0C0
C0C0
C0C0
C0C0
C0C0
C0C0
C0C0
ENDCHAR
STARTCHAR 0069
ENCODING 105
SWIDTH 240 0
DWIDTH 6 0
BBX 4 18 1 0
BITMAP
60
F0
70
00
00
00
60
60
60
60
60
60
60
60
60
60
60
60
ENDCHAR
STARTCHAR 006A
ENCODING 106
SWIDTH 240 0
DWIDTH 6 0
BBX 5 23 0 -5
BITMAP
30
78
38
00
00
00
30
30
30
30
30
30
30
30
30
30
30
30
30
30
30
F0
E0
ENDCHAR
STARTCHAR 006B
ENCODING 107
SWIDTH 520 0
DWIDTH 13 0
BBX 10 18 2 0
BITMAP
C000
C000
C000
C000
C000
C000
C1C0
C380
C700
CE00
DC00
FC00
FE00
E600
C700
C380
C1C0
C0C0
ENDCHAR
STARTCHAR 006C
ENCODING 108
SWIDTH 240 0
DWIDTH 6 0
BBX 2 18 2 0
BITMAP
C0
C0
C0
C0
C0
C0
C0
C0
C0
C0
C0
C0
C0
C0
C0
C0
C0
C0
ENDCHAR
STARTCHAR 006D
ENCODING 109
SWIDTH 840 0
DWIDTH 21 0
BBX 18 12 2 0
BITMAP
CF1F00
DFBF80
E1E1C0
C0C0C0
C0C0C0
C0C0C0
C0C0C0
C0C0C0
C0C0C0
C0C0C0
C0C0C0
C0C0C0
ENDCHAR
STARTCHAR 006E
ENCODING 110
SWIDTH 560 0
DWIDTH 14 0
BBX 10 12 2 0
BITMAP
CF00
DF80
F1C0
E0C0
C0C0
C0C0
C0C0
C0C0
C0C0
C0C0
C0C0
C0C0
ENDCHAR
STARTCHAR 006F
ENCODING 111
SWIDTH 560 0
DWIDTH 14 0
BBX 12 12 1 0
BITMAP
0F80
3FC0
70E0
6070
E030
C030
C030
E030
6070
70E0
3FC0
0F80
ENDCHAR
STARTCHAR 0070
ENCODING 112
SWIDTH 600 0
DWIDTH 15 0
BBX 12 17 2 -5
BITMAP
CF80
DFC0
F0E0
E060
E070
C070
C070
E070
E060
F0E0
DFC0
CF80
C000
C000
C000
C000
C000
ENDCHAR
STARTCHAR 0071
ENCODING 113
SWIDTH 600 0
DWIDTH 15 0
BBX 12 17 1 -5
BITMAP
1F70
3FF0
70F0
6070
E070
C070
C070
E070
E070
70F0
3FF0
1F70
0070
0070
0070
0070
0070
ENDCHAR
STARTCHAR 0072
ENCODING 114
SWIDTH 360 0
DWIDTH 9 0
BBX 7 12 2 0
BITMAP
CE
DE
FE
E0
E0
C0
C0
C0
C0
C0
C0
C0
ENDCHAR
STARTCHAR 0073
ENCODING 115
SWIDTH 440 0
DWIDTH 11 0
BBX 9 12 1 0
BITMAP
3E00
7F00
6380
E100
E000
7E00
1F00
0380
C180
E380
7F00
3E00
ENDCHAR
STARTCHAR 0074
ENCODING 116
SWIDTH 360 0
DWIDTH 9 0
BBX 8 16 0 0
BITMAP
18
18
18
38
FF
FF
18
18
18
18
18
18
18
1C
1F
0F
ENDCHAR
STARTCHAR 0075
ENCODING 117
SWIDTH 560 0
DWIDTH 14 0
BBX 10 12 2 0
BITMAP
C0C0
C0C0
C0C0
C0C0
C0C0
C0C0
C0C0
C0C0
C0C0
E1C0
7FC0
3EC0
ENDCHAR
STARTCHAR 0076
ENCODING 118
SWIDTH 520 0
DWIDTH 13 0
BBX 12 12 0 0
BITMAP
E030
6070
7060
30E0
38C0
38C0
19C0
1D80
0D80
0F00
0F00
0700
ENDCHAR
STARTCHAR 0077
ENCODING 119
SWIDTH 800 0
DWIDTH 20 0
BBX 18 12 1 0
BITMAP
C0C0C0
C1E0C0
E1E1C0
61E180
637180
733380
733300
361B00
361F00
3E1E00
1C0E00
1C0E00
ENDCHAR
STARTCHAR 0078
ENCODING 120
SWIDTH 480 0
DWIDTH 12 0
BBX 11 12 1 0
BITMAP
E0E0
E1C0
7380
3B00
1F00
1E00
1E00
1F00
3380
7380
E1C0
C0E0
ENDCHAR
STARTCHAR 0079
ENCODING 121
SWIDTH 520 0
DWIDTH 13 0
BBX 13 17 0 -5
BITMAP
E038
7030
7070
3860
38E0
18C0
1DC0
0D80
0F80
0700
0700
0700
0600
0E00
0C00
1C00
1800
ENDCHAR
STARTCHAR 007A
ENCODING 122
SWIDTH 480 0
DWIDTH 12 0
BBX 10 12 1 0
BITMAP
FFC0
FFC0
0380
0700
0600
0E00
1C00
3800
7000
E000
FFC0
FFC0
ENDCHAR
STARTCHAR 007B
ENCODING 123
SWIDTH 360 0
DWIDTH 9 0
BBX 8 24 1 -4
BITMAP
07
0F
1C
18
18
18
18
18
18
18
38
F0
F0
38
18
18
18
18
18
18
18
1C
0F
07
ENDCHAR
STARTCHAR 007C
ENCODING 124
SWIDTH 280 0
DWIDTH 7 0
BBX 2 24 2 -4
BITMAP
C0
C0
C0
C0
C0
C0
C0
C0
C0
C0
C0
C0
C0
C0
C0
C0
C0
C0
C0
C0
C0
C0
C0
C0
ENDCHAR
STARTCHAR 007D
ENCODING 125
SWIDTH 360 0
DWIDTH 9 0
BBX 8 24 0 -4
BITMAP
E0
F0
38
18
18
18
18
18
18
18
1C
0F
0F
1C
18
18
18
18
18
18
18
38
F0
E0
ENDCHAR
STARTCHAR 007E
ENCODING 126
SWIDTH 560 0
DWIDTH 14 0
BBX 12 4 1 5
BITMAP
3C00
FE30
C7F0
01C0
ENDCHAR
STARTCHAR 00A0
ENCODING 160
SWIDTH 240 0
DWIDTH 6 0
BBX 0 0 0 0
BITMAP
ENDCHAR
STARTCHAR 00A1
ENCODING 161
SWIDTH 280 0
DWIDTH 7 0
BBX 3 17 2 -5
BITMAP
E0
E0
E0
00
00
40
40
C0
C0
E0
E0
E0
E0
E0
E0
E0
E0
ENDCHAR
STARTCHAR 00A2
ENCODING 162
SWIDTH 560 0
DWIDTH 14 0
BBX 11 16 1 0
BITMAP
0600
0600
0F00
3FC0
76E0
6660
E600
E600
E600
E600
6660
7EE0
3FC0
0F00
0600
0600
ENDCHAR
STARTCHAR 00A3
ENCODING 163
SWIDTH 600 0
DWIDTH 15 0
BBX 12 16 2 0
BITMAP
0F00
3FC0
71C0
60E0
6080
6000
7000
FF80
FF80
3800
3800
3030
7030
E070
FFE0
FFC0
ENDCHAR
STARTCHAR 00A4
ENCODING 164
SWIDTH 600 0
DWIDTH 15 0
BBX 12 12 1 0
BITMAP
4030
EFF0
7FE0
38E0
7060
6030
6030
7060
38E0
7FE0
EFF0
4020
ENDCHAR
STARTCHAR 00A5
ENCODING 165
SWIDTH 600 0
DWIDTH 15 0
BBX 13 16 1 0
BITMAP
E038
6070
7060
38E0
38C0
1DC0
0D80
7FF0
7FF0
0700
7FF0
7FF0
0700
0700
0700
0700
ENDCHAR
STARTCHAR 00A6
ENCODING 166
SWIDTH 280 0
DWIDTH 7 0
BBX 2 24 2 -4
BITMAP
C0
C0
C0
C0
C0
C0
C0
C0
C0
C0
00
00
00
00
C0
C0
C0
C0
C0
C0
C0
C0
C0
C0
ENDCHAR
STARTCHAR 00A7
ENCODING 167
SWIDTH 560 0
DWIDTH 14 0
BBX 10 23 2 -5
BITMAP
1F00
7F80
61C0
E0C0
E0C0
E000
7000
3C00
3F00
6780
E1C0
E0C0
F0C0
79C0
3F80
0F80
03C0
01C0
C0C0
E0C0
61C0
7F80
1E00
ENDCHAR
STARTCHAR 00A8
ENCODING 168
SWIDTH 360 0
DWIDTH 9 0
BBX 8 3 1 14
BITMAP
C6
E7
C6
ENDCHAR
STARTCHAR 00A9
ENCODING 169
SWIDTH 840 0
DWIDTH 21 0
BBX 18 18 1 0
BITMAP
03F000
0FFC00
1C0F00
380380
71F180
63F9C0
6618C0
C600C0
CC00C0
CC00C0
C600C0
E61CC0
63F8C0
71E180
380300
1C0F00
0FFC00
03F000
ENDCHAR
STARTCHAR 00AA
ENCODING 170
SWIDTH 440 0
DWIDTH 11 0
BBX 7 9 2 7
BITMAP
7C
FE
C6
06
7E
C6
C6
FE
76
ENDCHAR
STARTCHAR 00AB
ENCODING 171
SWIDTH 480 0
DWIDTH 12 0
BBX 10 10 1 2
BITMAP
18C0
3180
7380
6300
C600
C600
6300
7380
3180
18C0
ENDCHAR
STARTCHAR 00AC
ENCODING 172
SWIDTH 560 0
DWIDTH 14 0
BBX 12 7 1 4
BITMAP
FFF0
FFF0
0030
0030
0030
0030
0030
ENDCHAR
STARTCHAR 00AD
ENCODING 173
SWIDTH 360 0
DWIDTH 9 0
BBX 7 2 1 6
BITMAP
FE
FE
ENDCHAR
STARTCHAR 00AE
ENCODING 174
SWIDTH 840 0
DWIDTH 21 0
BBX 18 18 1 0
BITMAP
03F000
0FFC00
1C0F00
380380
73F180
63F8C0
C318C0
C318C0
C3F8C0
C3F0C0
C360C0
6330C0
6331C0
731980
380300
1C0E00
0FFC00
03F000
ENDCHAR
STARTCHAR 00AF
ENCODING 175
SWIDTH 360 0
DWIDTH 9 0
BBX 7 2 1 14
BITMAP
FE
FE
ENDCHAR
STARTCHAR 00B0
ENCODING 176
SWIDTH 360 0
DWIDTH 9 0
BBX 8 8 1 8
BITMAP
3C
7E
C6
C7
C3
C6
7E
38
ENDCHAR
STARTCHAR 00B1
ENCODING 177
SWIDTH 560 0
DWIDTH 14 0
BBX 11 12 2 1
BITMAP
0C00
0C00
0C00
FFE0
FFE0
0C00
0C00
0C00
0C00
0000
FFE0
FFE0
ENDCHAR
STARTCHAR 00B2
ENCODING 178
SWIDTH 400 0
DWIDTH 10 0
BBX 6 10 2 8
BITMAP
78
FC
CC
8C
1C
38
60
C0
FC
FC
ENDCHAR
STARTCHAR 00B3
ENCODING 179
SWIDTH 400 0
DWIDTH 10 0
BBX 7 10 2 8
BITMAP
FE
FE
18
30
3C
0E
06
CE
FC
30
ENDCHAR
STARTCHAR 00B4
ENCODING 180
SWIDTH 280 0
DWIDTH 7 0
BBX 4 3 1 14
BITMAP
30
60
C0
ENDCHAR
STARTCHAR 00B5
ENCODING 181
SWIDTH 560 0
DWIDTH 14 0
BBX 10 17 2 -5
BITMAP
C0C0
C0C0
C0C0
C0C0
C0C0
C0C0
C0C0
C0C0
E0C0
E1C0
FFC0
FEC0
C000
C000
C000
C000
C000
ENDCHAR
STARTCHAR 00B6
ENCODING 182
SWIDTH 640 0
DWIDTH 16 0
BBX 14 23 1 -5
BITMAP
1FFC
7FFC
7E30
FE30
FE30
FE30
FE30
7E30
7E30
1E30
0630
0630
0630
0630
0630
0630
0630
0630
0630
0630
0630
0630
0630
ENDCHAR
STARTCHAR 00B7
ENCODING 183
SWIDTH 280 0
DWIDTH 7 0
BBX 3 4 2 5
BITMAP
E0
E0
E0
E0
ENDCHAR
STARTCHAR 00B8
ENCODING 184
SWIDTH 280 0
DWIDTH 7 0
BBX 5 5 1 -5
BITMAP
30
78
18
88
F8
ENDCHAR
STARTCHAR 00B9
ENCODING 185
SWIDTH 280 0
DWIDTH 7 0
BBX 4 9 1 9
BITMAP
30
70
F0
30
30
30
30
30
30
ENDCHAR
STARTCHAR 00BA
ENCODING 186
SWIDTH 480 0
DWIDTH 12 0
BBX 8 9 2 7
BITMAP
3C
7E
C3
C3
C1
C3
E3
7E
18
ENDCHAR
STARTCHAR 00BB
ENCODING 187
SWIDTH 480 0
DWIDTH 12 0
BBX 10 10 1 2
BITMAP
C600
E700
6300
3180
39C0
39C0
3180
6300
E700
C600
ENDCHAR
STARTCHAR 00BC
ENCODING 188
SWIDTH 800 0
DWIDTH 20 0
BBX 17 16 1 0
BITMAP
100E00
700C00
F01800
103000
107000
106000
10C000
118700
138F00
031B00
061B00
0E3300
0C7F80
187F80
300300
700300
ENDCHAR
STARTCHAR 00BD
ENCODING 189
SWIDTH 760 0
DWIDTH 19 0
BBX 17 16 1 0
BITMAP
100E00
700C00
F01800
103000
107000
106000
10C000
118F00
139F80
031980
061980
0E0380
0C0E00
181C00
301F80
701F80
ENDCHAR
STARTCHAR 00BE
ENCODING 190
SWIDTH 840 0
DWIDTH 21 0
BBX 19 16 1 0
BITMAP
7E0380
7E0300
0C0600
180E00
1E0C00
031800
C33000
7E7180
3C6380
00C780
018D80
039980
031FE0
061FE0
0E0180
0C0180
ENDCHAR
STARTCHAR 00BF
ENCODING 191
SWIDTH 520 0
DWIDTH 13 0
BBX 10 18 1 -6
BITMAP
0E00
0E00
0E00
0000
0000
0C00
0C00
0C00
3C00
7800
E000
C000
C0C0
C0C0
C0C0
F3C0
7F80
3E00
ENDCHAR
STARTCHAR 00C0
ENCODING 192
SWIDTH 680 0
DWIDTH 17 0
BBX 17 22 0 0
BITMAP
070000
038000
018000
000000
01C000
01E000
03E000
036000
037000
073000
063800
0E3800
0C1800
0C1C00
1C0C00
1FFE00
3FFE00
380600
300700
700300
600380
E00380
ENDCHAR
STARTCHAR 00C1
ENCODING 193
SWIDTH 680 0
DWIDTH 17 0
BBX 17 22 0 0
BITMAP
003800
007000
00C000
000000
01C000
01E000
03E000
036000
037000
073000
063800
0E3800
0C1800
0C1C00
1C0C00
1FFE00
3FFE00
380600
300700
700300
600380
E00380
ENDCHAR
STARTCHAR 00C2
ENCODING 194
SWIDTH 680 0
DWIDTH 17 0
BBX 17 22 0 0
BITMAP
01E000
037000
063800
000000
01C000
01E000
03E000
036000
037000
073000
063800
0E3800
0C1800
0C1C00
1C0C00
1FFE00
3FFE00
380600
300700
700300
600380
E00380
ENDCHAR
STARTCHAR 00C3
ENCODING 195
SWIDTH 680 0
DWIDTH 17 0
BBX 17 22 0 0
BITMAP
039800
07F000
04F000
000000
01C000
01E000
03E000
036000
037000
073000
063800
0E3800
0C1800
0C1C00
1C0C00
1FFE00
3FFE00
380600
300700
700300
600380
E00380
ENDCHAR
STARTCHAR 00C4
ENCODING 196
SWIDTH 680 0
DWIDTH 17 0
BBX 17 22 0 0
BITMAP
0C1800
0C1C00
0C1800
000000
01C000
01E000
03E000
036000
037000
073000
063800
0E3800
0C1800
0C1C00
1C0C00
1FFE00
3FFE00
380600
300700
700300
600380
E00380
ENDCHAR
STARTCHAR 00C5
ENCODING 197
SWIDTH 680 0
DWIDTH 17 0
BBX 17 22 0 0
BITMAP
01C000
03E000
023000
033000
03E000
01E000
03E000
036000
037000
073000
063800
0E3800
0C1800
0C1C00
1C0C00
1FFE00
3FFE00
380600
300700
700300
600380
E00380
ENDCHAR
STARTCHAR 00C6
ENCODING 198
SWIDTH 1040 0
DWIDTH 26 0
BBX 24 18 0 0
BITMAP
000FFF
001FFF
003F00
003700
007700
00E700
00E700
01C700
0387FE
0387FE
070700
0FFF00
0FFF00
1C0700
380700
380700
7007FF
F007FF
ENDCHAR
STARTCHAR 00C7
ENCODING 199
SWIDTH 760 0
DWIDTH 19 0
BBX 17 23 1 -5
BITMAP
03F000
0FFC00
1F1E00
380700
700300
600380
E00000
E00000
E00000
E00000
E00000
E00000
600380
700300
380700
1E1E00
0FFC00
03F000
00C000
00E000
003000
03F000
01E000
ENDCHAR
STARTCHAR 00C8
ENCODING 200
SWIDTH 600 0
DWIDTH 15 0
BBX 11 22 2 0
BITMAP
3800
1C00
0600
0000
FFE0
FFE0
E000
E000
E000
E000
E000
E000
FFC0
FFC0
E000
E000
E000
E000
E000
E000
FFE0
FFE0
ENDCHAR
STARTCHAR 00C9
ENCODING 201
SWIDTH 600 0
DWIDTH 15 0
BBX 11 22 2 0
BITMAP
0380
0700
0E00
0000
FFE0
FFE0
E000
E000
E000
E000
E000
E000
FFC0
FFC0
E000
E000
E000
E000
E000
E000
FFE0
FFE0
ENDCHAR
STARTCHAR 00CA
ENCODING 202
SWIDTH 600 0
DWIDTH 15 0
BBX 11 22 2 0
BITMAP
0F00
1B80
31C0
0000
FFE0
FFE0
E000
E000
E000
E000
E000
E000
FFC0
FFC0
E000
E000
E000
E000
E000
E000
FFE0
FFE0
ENDCHAR
STARTCHAR 00CB
ENCODING 203
SWIDTH 600 0
DWIDTH 15 0
BBX 11 22 2 0
BITMAP
30C0
71C0
31C0
0000
FFE0
FFE0
E000
E000
E000
E000
E000
E000
FFC0
FFC0
E000
E000
E000
E000
E000
E000
FFE0
FFE0
ENDCHAR
STARTCHAR 00CC
ENCODING 204
SWIDTH 280 0
DWIDTH 7 0
BBX 6 22 -1 0
BITMAP
F0
30
18
00
1C
1C
1C
1C
1C
1C
1C
1C
1C
1C
1C
1C
1C
1C
1C
1C
1C
1C
ENDCHAR
STARTCHAR 00CD
ENCODING 205
SWIDTH 280 0
DWIDTH 7 0
BBX 6 22 2 0
BITMAP
3C
30
60
00
E0
E0
E0
E0
E0
E0
E0
E0
E0
E0
E0
E0
E0
E0
E0
E0
E0
E0
ENDCHAR
STARTCHAR 00CE
ENCODING 206
SWIDTH 280 0
DWIDTH 7 0
BBX 8 22 0 0
BITMAP
3C
6E
C7
00
38
38
38
38
38
38
38
38
38
38
38
38
38
38
38
38
38
38
ENDCHAR
STARTCHAR 00CF
ENCODING 207
SWIDTH 280 0
DWIDTH 7 0
BBX 7 22 0 0
BITMAP
6C
EE
44
00
38
38
38
38
38
38
38
38
38
38
38
38
38
38
38
38
38
38
ENDCHAR
STARTCHAR 00D0
ENCODING 208
SWIDTH 720 0
DWIDTH 18 0
BBX 17 18 0 0
BITMAP
3FF000
3FF800
383E00
380E00
380700
380300
380380
380380
FF0380
FF0380
380380
380380
380380
380700
380F00
383E00
3FFC00
3FE000
ENDCHAR
STARTCHAR 00D1
ENCODING 209
SWIDTH 760 0
DWIDTH 19 0
BBX 15 22 2 0
BITMAP
0F30
0FE0
09E0
0000
F00E
F00E
F80E
FC0E
FC0E
EE0E
E70E
E70E
E38E
E1CE
E1CE
E0EE
E07E
E07E
E03E
E01E
E01E
E00E
ENDCHAR
STARTCHAR 00D2
ENCODING 210
SWIDTH 800 0
DWIDTH 20 0
BBX 18 22 1 0
BITMAP
070000
038000
01C000
000000
03F000
0FFC00
1F3E00
380700
700380
600180
E001C0
E001C0
E001C0
E001C0
E001C0
E001C0
600180
700380
380700
1F1E00
0FFC00
03F000
ENDCHAR
STARTCHAR 00D3
ENCODING 211
SWIDTH 800 0
DWIDTH 20 0
BBX 18 22 1 0
BITMAP
003800
007000
00E000
000000
03F000
0FFC00
1F3E00
380700
700380
600180
E001C0
E001C0
E001C0
E001C0
E001C0
E001C0
600180
700380
380700
1F1E00
0FFC00
03F000
ENDCHAR
STARTCHAR 00D4
ENCODING 212
SWIDTH 800 0
DWIDTH 20 0
BBX 18 22 1 0
BITMAP
01E000
03F000
073800
000000
03F000
0FFC00
1F3E00
380700
700380
600180
E001C0
E001C0
E001C0
E001C0
E001C0
E001C0
600180
700380
380700
1F1E00
0FFC00
03F000
ENDCHAR
STARTCHAR 00D5
ENCODING 213
SWIDTH 800 0
DWIDTH 20 0
BBX 18 22 1 0
BITMAP
039800
07F800
067000
000000
03F000
0FFC00
1F3E00
380700
700380
600180
E001C0
E001C0
E001C0
E001C0
E001C0
E001C0
600180
700380
380700
1F1E00
0FFC00
03F000
ENDCHAR
STARTCHAR 00D6
ENCODING 214
SWIDTH 800 0
DWIDTH 20 0
BBX 18 22 1 0
BITMAP
0C0C00
0E1C00
0C0C00
000000
03F000
0FFC00
1F3E00
380700
700380
600180
E001C0
E001C0
E001C0
E001C0
E001C0
E001C0
600180
700380
380700
1F1E00
0FFC00
03F000
ENDCHAR
STARTCHAR 00D7
ENCODING 215
SWIDTH 520 0
DWIDTH 13 0
BBX 11 12 1 1
BITMAP
4040
E0E0
71C0
3980
1F00
0E00
0E00
1F00
3980
71C0
E0E0
4040
ENDCHAR
STARTCHAR 00D8
ENCODING 216
SWIDTH 800 0
DWIDTH 20 0
BBX 18 20 1 -1
BITMAP
000100
03F380
0FFF00
1F1F00
380F00
701F80
601980
E031C0
E071C0
E0E1C0
E1C1C0
E181C0
E301C0
670180
7E0380
3C0700
3E1E00
3FFC00
73F000
200000
ENDCHAR
STARTCHAR 00D9
ENCODING 217
SWIDTH 680 0
DWIDTH 17 0
BBX 13 22 2 0
BITMAP
1C00
0E00
0700
0000
C038
C038
C038
C038
C038
C038
C038
C038
C038
C038
C038
C038
E038
E038
6070
78F0
3FE0
0F80
ENDCHAR
STARTCHAR 00DA
ENCODING 218
SWIDTH 680 0
DWIDTH 17 0
BBX 13 22 2 0
BITMAP
01C0
0380
0700
0000
C038
C038
C038
C038
C038
C038
C038
C038
C038
C038
C038
C038
E038
E038
6070
78F0
3FE0
0F80
ENDCHAR
STARTCHAR 00DB
ENCODING 219
SWIDTH 680 0
DWIDTH 17 0
BBX 13 22 2 0
BITMAP
0F00
1F80
38C0
0000
C038
C038
C038
C038
C038
C038
C038
C038
C038
C038
C038
C038
E038
E038
6070
78F0
3FE0
0F80
ENDCHAR
STARTCHAR 00DC
ENCODING 220
SWIDTH 680 0
DWIDTH 17 0
BBX 13 22 2 0
BITMAP
18C0
38E0
18C0
0000
C038
C038
C038
C038
C038
C038
C038
C038
C038
C038
C038
C038
E038
E038
6070
78F0
3FE0
0F80
ENDCHAR
STARTCHAR 00DD
ENCODING 221
SWIDTH 600 0
DWIDTH 15 0
BBX 14 22 1 0
BITMAP
01C0
0380
0700
0000
C01C
E018
7038
7070
3860
18E0
1CC0
0DC0
0F80
0700
0700
0700
0700
0700
0700
0700
0700
0700
ENDCHAR
STARTCHAR 00DE
ENCODING 222
SWIDTH 600 0
DWIDTH 15 0
BBX 12 18 2 0
BITMAP
E000
E000
E000
E000
FF80
FFE0
E0F0
E070
E030
E030
E070
E0E0
FFE0
FF80
E000
E000
E000
E000
ENDCHAR
STARTCHAR 00DF
ENCODING 223
SWIDTH 560 0
DWIDTH 14 0
BBX 12 18 2 0
BITMAP
1F00
3FC0
71C0
E0E0
E0E0
C0C0
C1C0
C780
C600
CE00
C700
C7C0
C1E0
C060
DC70
CC60
CFE0
C7C0
ENDCHAR
STARTCHAR 00E0
ENCODING 224
SWIDTH 520 0
DWIDTH 13 0
BBX 11 17 1 0
BITMAP
3800
1800
0C00
0E00
0000
1F00
3F80
71C0
60C0
00C0
0FC0
7EC0
60C0
E0C0
E1C0
7FC0
3CE0
ENDCHAR
STARTCHAR 00E1
ENCODING 225
SWIDTH 520 0
DWIDTH 13 0
BBX 11 17 1 0
BITMAP
0380
0300
0700
0600
0000
1F00
3F80
71C0
60C0
00C0
0FC0
7EC0
60C0
E0C0
E1C0
7FC0
3CE0
ENDCHAR
STARTCHAR 00E2
ENCODING 226
SWIDTH 520 0
DWIDTH 13 0
BBX 11 17 1 0
BITMAP
0E00
1F00
1B80
3180
0000
1F00
3F80
71C0
60C0
00C0
0FC0
7EC0
60C0
E0C0
E1C0
7FC0
3CE0
ENDCHAR
STARTCHAR 00E3
ENCODING 227
SWIDTH 520 0
DWIDTH 13 0
BBX 11 17 1 0
BITMAP
18C0
3C80
3780
3300
0000
1F00
3F80
71C0
60C0
00C0
0FC0
7EC0
60C0
E0C0
E1C0
7FC0
3CE0
ENDCHAR
STARTCHAR 00E4
ENCODING 228
SWIDTH 520 0
DWIDTH 13 0
BBX 11 17 1 0
BITMAP
3180
3B80
3180
0000
0000
1F00
3F80
71C0
60C0
00C0
0FC0
7EC0
60C0
E0C0
E1C0
7FC0
3CE0
ENDCHAR
STARTCHAR 00E5
ENCODING 229
SWIDTH 520 0
DWIDTH 13 0
BBX 11 19 1 0
BITMAP
0400
1F00
1B00
1100
1F00
0E00
0000
1F00
3F80
71C0
60C0
00C0
0FC0
7EC0
60C0
E0C0
E1C0
7FC0
3CE0
ENDCHAR
STARTCHAR 00E6
ENCODING 230
SWIDTH 880 0
DWIDTH 22 0
BBX 20 12 1 0
BITMAP
1F0F80
3FBFC0
71F0E0
60E060
00E070
1FFFF0
7FFFF0
60E000
E0E070
E1F8E0
7FBFC0
3E0F80
ENDCHAR
STARTCHAR 00E7
ENCODING 231
SWIDTH 520 0
DWIDTH 13 0
BBX 11 17 1 -5
BITMAP
0F80
3FC0
78E0
6060
E040
C000
C000
E000
E060
70E0
3FC0
1F80
0600
0700
0180
0980
1F00
ENDCHAR
STARTCHAR 00E8
ENCODING 232
SWIDTH 560 0
DWIDTH 14 0
BBX 12 17 1 0
BITMAP
3800
1C00
0C00
0600
0000
0F00
3FC0
70E0
6060
E060
FFF0
FFF0
E000
E060
70E0
3FC0
0F00
ENDCHAR
STARTCHAR 00E9
ENCODING 233
SWIDTH 560 0
DWIDTH 14 0
BBX 12 17 1 0
BITMAP
0180
0380
0300
0600
0000
0F00
3FC0
70E0
6060
E060
FFF0
FFF0
E000
E060
70E0
3FC0
0F00
ENDCHAR
STARTCHAR 00EA
ENCODING 234
SWIDTH 560 0
DWIDTH 14 0
BBX 12 17 1 0
BITMAP
0F00
0F00
1980
39C0
0000
0F00
3FC0
70E0
6060
E060
FFF0
FFF0
E000
E060
70E0
3FC0
0F00
ENDCHAR
STARTCHAR 00EB
ENCODING 235
SWIDTH 560 0
DWIDTH 14 0
BBX 12 17 1 0
BITMAP
1980
39C0
3980
0000
0000
0F00
3FC0
70E0
6060
E060
FFF0
FFF0
E000
E060
70E0
3FC0
0F00
ENDCHAR
STARTCHAR 00EC
ENCODING 236
SWIDTH 240 0
DWIDTH 6 0
BBX 4 17 0 0
BITMAP
C0
60
30
00
00
30
30
30
30
30
30
30
30
30
30
30
30
ENDCHAR
STARTCHAR 00ED
ENCODING 237
SWIDTH 240 0
DWIDTH 6 0
BBX 5 17 2 0
BITMAP
38
70
E0
00
00
C0
C0
C0
C0
C0
C0
C0
C0
C0
C0
C0
C0
ENDCHAR
STARTCHAR 00EE
ENCODING 238
SWIDTH 240 0
DWIDTH 6 0
BBX 7 17 0 0
BITMAP
78
7C
CE
00
00
30
30
30
30
30
30
30
30
30
30
30
30
ENDCHAR
STARTCHAR 00EF
ENCODING 239
SWIDTH 240 0
DWIDTH 6 0
BBX 6 17 0 0
BITMAP
CC
EC
48
00
00
30
30
30
30
30
30
30
30
30
30
30
30
ENDCHAR
STARTCHAR 00F0
ENCODING 240
SWIDTH 560 0
DWIDTH 14 0
BBX 12 18 1 0
BITMAP
1800
3EE0
0FC0
0FC0
19C0
00E0
0F60
3FF0
70F0
E070
E030
C030
C030
E030
E070
70E0
3FC0
1F80
ENDCHAR
STARTCHAR 00F1
ENCODING 241
SWIDTH 560 0
DWIDTH 14 0
BBX 10 17 2 0
BITMAP
3C80
3F80
6700
0000
0000
CF00
DF80
F1C0
E0C0
C0C0
C0C0
C0C0
C0C0
C0C0
C0C0
C0C0
C0C0
ENDCHAR
STARTCHAR 00F2
ENCODING 242
SWIDTH 560 0
DWIDTH 14 0
BBX 12 17 1 0
BITMAP
3800
1C00
0C00
0600
0000
0F80
3FC0
70E0
6070
E030
C030
C030
E030
6070
70E0
3FC0
0F80
ENDCHAR
STARTCHAR 00F3
ENCODING 243
SWIDTH 560 0
DWIDTH 14 0
BBX 12 17 1 0
BITMAP
0180
0380
0300
0600
0000
0F80
3FC0
70E0
6070
E030
C030
C030
E030
6070
70E0
3FC0
0F80
ENDCHAR
STARTCHAR 00F4
ENCODING 244
SWIDTH 560 0
DWIDTH 14 0
BBX 12 17 1 0
BITMAP
0F00
0F00
1D80
18C0
0000
0F80
3FC0
70E0
6070
E030
C030
C030
E030
6070
70E0
3FC0
0F80
ENDCHAR
STARTCHAR 00F5
ENCODING 245
SWIDTH 560 0
DWIDTH 14 0
BBX 12 17 1 0
BITMAP
1CC0
1EC0
33C0
3180
0000
0F80
3FC0
70E0
6070
E030
C030
C030
E030
6070
70E0
3FC0
0F80
ENDCHAR
STARTCHAR 00F6
ENCODING 246
SWIDTH 560 0
DWIDTH 14 0
BBX 12 17 1 0
BITMAP
19C0
39C0
19C0
0000
0000
0F80
3FC0
70E0
6070
E030
C030
C030
E030
6070
70E0
3FC0
0F80
ENDCHAR
STARTCHAR 00F7
ENCODING 247
SWIDTH 560 0
DWIDTH 14 0
BBX 12 12 1 1
BITMAP
0600
0F00
0600
0000
0000
FFF0
FFF0
0000
0000
0600
0F00
0600
ENDCHAR
STARTCHAR 00F8
ENCODING 248
SWIDTH 560 0
DWIDTH 14 0
BBX 12 14 1 -1
BITMAP
0020
0FF0
3FE0
70E0
61F0
E3B0
C730
C630
EC30
7870
70E0
7FC0
EF80
4000
ENDCHAR
STARTCHAR 00F9
ENCODING 249
SWIDTH 560 0
DWIDTH 14 0
BBX 10 17 2 0
BITMAP
3800
1800
0C00
0000
0000
C0C0
C0C0
C0C0
C0C0
C0C0
C0C0
C0C0
C0C0
C0C0
E1C0
7FC0
3EC0
ENDCHAR
STARTCHAR 00FA
ENCODING 250
SWIDTH 560 0
DWIDTH 14 0
BBX 10 17 2 0
BITMAP
0700
0600
0C00
0000
0000
C0C0
C0C0
C0C0
C0C0
C0C0
C0C0
C0C0
C0C0
C0C0
E1C0
7FC0
3EC0
ENDCHAR
STARTCHAR 00FB
ENCODING 251
SWIDTH 560 0
DWIDTH 14 0
BBX 10 17 2 0
BITMAP
1E00
3F00
7380
0000
0000
C0C0
C0C0
C0C0
C0C0
C0C0
C0C0
C0C0
C0C0
C0C0
E1C0
7FC0
3EC0
ENDCHAR
STARTCHAR 00FC
ENCODING 252
SWIDTH 560 0
DWIDTH 14 0
BBX 10 17 2 0
BITMAP
3300
7380
3300
0000
0000
C0C0
C0C0
C0C0
C0C0
C0C0
C0C0
C0C0
C0C0
C0C0
E1C0
7FC0
3EC0
ENDCHAR
STARTCHAR 00FD
ENCODING 253
SWIDTH 520 0
DWIDTH 13 0
BBX 13 22 0 -5
BITMAP
01C0
0380
0700
0000
0000
E038
7030
7070
3860
38E0
18C0
1DC0
0D80
0F80
0700
0700
0700
0600
0E00
0C00
1C00
1800
ENDCHAR
STARTCHAR 00FE
ENCODING 254
SWIDTH 600 0
DWIDTH 15 0
BBX 12 23 2 -5
BITMAP
C000
C000
C000
C000
C000
C000
CF80
DFC0
F0E0
E060
E070
C070
C070
E070
E060
F0E0
DFC0
CF80
C000
C000
C000
C000
C000
ENDCHAR
STARTCHAR 00FF
ENCODING 255
SWIDTH 520 0
DWIDTH 13 0
BBX 13 22 0 -5
BITMAP
18C0
1DC0
18C0
0000
0000
E038
7030
7070
3860
38E0
18C0
1DC0
0D80
0F80
0700
0700
0700
0600
0E00
0C00
1C00
1800
ENDCHAR
STARTCHAR 0131
ENCODING 305
SWIDTH 240 0
DWIDTH 6 0
BBX 2 12 2 0
BITMAP
C0
C0
C0
C0
C0
C0
C0
C0
C0
C0
C0
C0
ENDCHAR
STARTCHAR 0141
ENCODING 321
SWIDTH 560 0
DWIDTH 14 0
BBX 13 18 0 0
BITMAP
1800
1800
1800
1800
1800
1800
1980
1F80
3E00
F800
F800
9800
1800
1800
1800
1800
1FF8
1FF8
ENDCHAR
STARTCHAR 0142
ENCODING 322
SWIDTH 280 0
DWIDTH 7 0
BBX 7 18 0 0
BITMAP
38
38
38
38
38
38
38
3A
3E
7C
F8
F8
38
38
38
38
38
38
ENDCHAR
STARTCHAR 0152
ENCODING 338
SWIDTH 1160 0
DWIDTH 29 0
BBX 26 18 1 0
BITMAP
03F1FFC0
0FFDFFC0
1C0FC000
3807C000
7003C000
6001C000
E001C000
E001C000
E001FF80
E001FF80
E001C000
E001C000
6001C000
7003C000
3807C000
1C0FC000
0FFDFFC0
03F1FFC0
ENDCHAR
STARTCHAR 0153
ENCODING 339
SWIDTH 920 0
DWIDTH 23 0
BBX 21 12 1 0
BITMAP
0F83C0
3FCFF0
70FC78
607818
E03018
C03FF8
C03FF8
E03000
E07818
70FC38
3FCFF0
0F87C0
ENDCHAR
STARTCHAR 0160
ENCODING 352
SWIDTH 600 0
DWIDTH 15 0
BBX 13 22 1 0
BITMAP
18E0
0DC0
0780
0000
0F80
1FE0
38F0
7030
6030
6000
7000
7800
3FC0
0FE0
00F0
0038
4038
E038
E030
78F0
3FE0
0F80
ENDCHAR
STARTCHAR 0161
ENCODING 353
SWIDTH 440 0
DWIDTH 11 0
BBX 9 17 1 0
BITMAP
6300
3700
3E00
1C00
0000
3E00
7F00
6380
E100
E000
7E00
1F00
0380
C180
E380
7F00
3E00
ENDCHAR
STARTCHAR 0178
ENCODING 376
SWIDTH 600 0
DWIDTH 15 0
BBX 14 22 1 0
BITMAP
1860
38E0
1860
0000
C01C
E018
7038
7070
3860
18E0
1CC0
0DC0
0F80
0700
0700
0700
0700
0700
0700
0700
0700
0700
ENDCHAR
STARTCHAR 017D
ENCODING 381
SWIDTH 640 0
DWIDTH 16 0
BBX 14 22 1 0
BITMAP
1CE0
0FC0
0780
0000
FFFC
FFFC
001C
0038
0070
00E0
01C0
01C0
0380
0700
0E00
1C00
1C00
3800
7000
E000
FFFC
FFFC
ENDCHAR
STARTCHAR 017E
ENCODING 382
SWIDTH 480 0
DWIDTH 12 0
BBX 10 17 1 0
BITMAP
7300
3F00
1E00
0000
0000
FFC0
FFC0
0380
0700
0600
0E00
1C00
3800
7000
E000
FFC0
FFC0
ENDCHAR
STARTCHAR 0192
ENCODING 402
SWIDTH 480 0
DWIDTH 12 0
BBX 13 22 -1 -4
BITMAP
0078
00F8
01C0
0180
0180
0380
1FF0
1FF0
0300
0300
0700
0700
0600
0600
0600
0E00
0E00
0C00
0C00
1C00
F800
F000
ENDCHAR
STARTCHAR 02C6
ENCODING 710
SWIDTH 400 0
DWIDTH 10 0
BBX 7 3 1 14
BITMAP
3C
7C
E6
ENDCHAR
STARTCHAR 02C7
ENCODING 711
SWIDTH 400 0
DWIDTH 10 0
BBX 7 3 1 14
BITMAP
E6
7C
3C
ENDCHAR
STARTCHAR 02C9
ENCODING 713
SWIDTH 360 0
DWIDTH 9 0
BBX 7 2 1 14
BITMAP
FE
FE
ENDCHAR
STARTCHAR 02D8
ENCODING 728
SWIDTH 360 0
DWIDTH 9 0
BBX 7 3 1 14
BITMAP
C6
FE
38
ENDCHAR
STARTCHAR 02D9
ENCODING 729
SWIDTH 160 0
DWIDTH 4 0
BBX 3 3 1 14
BITMAP
C0
E0
C0
ENDCHAR
STARTCHAR 02DA
ENCODING 730
SWIDTH 280 0
DWIDTH 7 0
BBX 5 6 1 13
BITMAP
70
F8
88
C8
F8
20
ENDCHAR
STARTCHAR 02DB
ENCODING 731
SWIDTH 240 0
DWIDTH 6 0
BBX 4 5 1 -5
BITMAP
70
C0
C0
F0
70
ENDCHAR
STARTCHAR 02DC
ENCODING 732
SWIDTH 360 0
DWIDTH 9 0
BBX 8 3 1 14
BITMAP
73
FE
CE
ENDCHAR
STARTCHAR 02DD
ENCODING 733
SWIDTH 360 0
DWIDTH 9 0
BBX 7 3 1 14
BITMAP
6E
EC
D8
ENDCHAR
STARTCHAR 0394
ENCODING 916
SWIDTH 680 0
DWIDTH 17 0
BBX 16 18 0 0
BITMAP
01C0
03C0
03E0
03E0
0760
0670
0E30
0E30
0C38
1C18
181C
181C
380C
300E
7006
7007
7FFF
FFFF
ENDCHAR
STARTCHAR 03A9
ENCODING 937
SWIDTH 800 0
DWIDTH 20 0
BBX 18 18 1 0
BITMAP
03F000
0FFC00
1E1E00
380700
700380
600180
E001C0
E001C0
E001C0
E001C0
E00180
700380
700380
380700
1E1E00
073800
FF3FC0
FF3FC0
ENDCHAR
STARTCHAR 03BC
ENCODING 956
SWIDTH 560 0
DWIDTH 14 0
BBX 10 17 2 -5
BITMAP
C0C0
C0C0
C0C0
C0C0
C0C0
C0C0
C0C0
C0C0
E0C0
E1C0
FFC0
FEC0
C000
C000
C000
C000
C000
ENDCHAR
STARTCHAR 03C0
ENCODING 960
SWIDTH 600 0
DWIDTH 15 0
BBX 13 12 1 0
BITMAP
FFF8
FFF8
3860
3860
3860
3860
3860
3860
3860
3860
3878
3838
ENDCHAR
STARTCHAR 2007
ENCODING 8199
SWIDTH 600 0
DWIDTH 15 0
BBX 0 0 0 0
BITMAP
ENDCHAR
STARTCHAR 2008
ENCODING 8200
SWIDTH 280 0
DWIDTH 7 0
BBX 0 0 0 0
BITMAP
ENDCHAR
STARTCHAR 200B
ENCODING 8203
SWIDTH 0 0
DWIDTH 0 0
BBX 0 0 0 0
BITMAP
ENDCHAR
STARTCHAR 2013
ENCODING 8211
SWIDTH 640 0
DWIDTH 16 0
BBX 12 2 2 6
BITMAP
FFF0
FFF0
ENDCHAR
STARTCHAR 2014
ENCODING 8212
SWIDTH 1120 0
DWIDTH 28 0
BBX 24 2 2 6
BITMAP
FFFFFF
FFFFFF
ENDCHAR
STARTCHAR 2018
ENCODING 8216
SWIDTH 200 0
DWIDTH 5 0
BBX 3 7 1 11
BITMAP
20
60
C0
80
E0
E0
60
ENDCHAR
STARTCHAR 2019
ENCODING 8217
SWIDTH 240 0
DWIDTH 6 0
BBX 4 7 1 11
BITMAP
E0
F0
F0
20
20
60
C0
ENDCHAR
STARTCHAR 201A
ENCODING 8218
SWIDTH 240 0
DWIDTH 6 0
BBX 4 7 1 -4
BITMAP
E0
F0
F0
20
20
60
80
ENDCHAR
STARTCHAR 201C
ENCODING 8220
SWIDTH 400 0
DWIDTH 10 0
BBX 8 7 1 11
BITMAP
23
66
C4
8C
EF
EF
66
ENDCHAR
STARTCHAR 201D
ENCODING 8221
SWIDTH 400 0
DWIDTH 10 0
BBX 8 7 1 11
BITMAP
E6
EF
EF
23
22
66
8C
ENDCHAR
STARTCHAR 201E
ENCODING 8222
SWIDTH 400 0
DWIDTH 10 0
BBX 8 6 1 -3
BITMAP
E6
EF
E7
23
66
CC
ENDCHAR
STARTCHAR 2020
ENCODING 8224
SWIDTH 400 0
DWIDTH 10 0
BBX 8 14 1 4
BITMAP
18
18
18
18
FF
FF
18
18
18
18
18
18
18
18
ENDCHAR
STARTCHAR 2021
ENCODING 8225
SWIDTH 440 0
DWIDTH 11 0
BBX 9 18 1 0
BITMAP
1800
1800
1800
1800
FF80
FF80
1800
1800
1800
1800
1800
1800
FF80
FF80
1800
1800
1800
1800
ENDCHAR
STARTCHAR 2022
ENCODING 8226
SWIDTH 560 0
DWIDTH 14 0
BBX 10 10 2 2
BITMAP
1E00
7F80
FF80
FFC0
FFC0
FFC0
FFC0
FF80
7F80
1E00
ENDCHAR
STARTCHAR 2026
ENCODING 8230
SWIDTH 920 0
DWIDTH 23 0
BBX 19 3 2 0
BITMAP
60E0E0
E0E0E0
60E0E0
ENDCHAR
STARTCHAR 2030
ENCODING 8240
SWIDTH 1040 0
DWIDTH 26 0
BBX 24 16 1 0
BITMAP
1C0300
7F0600
630C00
E31C00
E31800
633000
7E7000
3C6000
00C000
018F3C
039FFE
0318E3
0630C3
0C38E3
1C1FFE
180F3C
ENDCHAR
STARTCHAR 2039
ENCODING 8249
SWIDTH 280 0
DWIDTH 7 0
BBX 5 10 1 2
BITMAP
18
30
70
60
C0
C0
60
70
30
18
ENDCHAR
STARTCHAR 203A
ENCODING 8250
SWIDTH 280 0
DWIDTH 7 0
BBX 5 10 1 2
BITMAP
C0
E0
60
30
38
38
30
60
E0
C0
ENDCHAR
STARTCHAR 2042
ENCODING 8258
SWIDTH 840 0
DWIDTH 21 0
BBX 19 18 1 0
BITMAP
004000
004000
024800
07FC00
00E000
01F000
01B000
011000
000000
000000
180300
180300
DB1360
FF1FE0
3C0780
3C0780
660CC0
260880
ENDCHAR
STARTCHAR 2044
ENCODING 8260
SWIDTH 560 0
DWIDTH 14 0
BBX 14 16 0 0
BITMAP
001C
0018
0030
0060
00E0
00C0
0180
0300
0700
0600
0C00
1C00
1800
3000
6000
E000
ENDCHAR
STARTCHAR 2051
ENCODING 8273
SWIDTH 440 0
DWIDTH 11 0
BBX 8 18 1 0
BITMAP
18
18
D9
FF
1C
3C
76
22
00
00
18
18
D9
FF
1C
3C
76
22
ENDCHAR
STARTCHAR 2070
ENCODING 8304
SWIDTH 440 0
DWIDTH 11 0
BBX 7 10 2 8
BITMAP
78
FC
C6
C6
86
C6
C6
C6
7C
10
ENDCHAR
STARTCHAR 2074
ENCODING 8308
SWIDTH 440 0
DWIDTH 11 0
BBX 9 9 1 9
BITMAP
0600
0E00
1E00
3600
6600
6600
FF80
FF80
0600
ENDCHAR
STARTCHAR 2075
ENCODING 8309
SWIDTH 400 0
DWIDTH 10 0
BBX 7 10 2 8
BITMAP
7C
7C
C0
F8
FC
06
06
CC
FC
30
ENDCHAR
STARTCHAR 2076
ENCODING 8310
SWIDTH 400 0
DWIDTH 10 0
BBX 8 10 1 8
BITMAP
1E
3E
60
7E
7F
E3
63
63
3E
08
ENDCHAR
STARTCHAR 2077
ENCODING 8311
SWIDTH 400 0
DWIDTH 10 0
BBX 8 9 1 9
BITMAP
FF
FF
06
0C
18
18
18
30
30
ENDCHAR
STARTCHAR 2078
ENCODING 8312
SWIDTH 400 0
DWIDTH 10 0
BBX 7 10 2 8
BITMAP
78
FC
CC
CC
78
FC
86
C6
FC
30
ENDCHAR
STARTCHAR 2079
ENCODING 8313
SWIDTH 400 0
DWIDTH 10 0
BBX 8 10 1 8
BITMAP
3C
7E
63
C3
67
7F
13
06
7C
10
ENDCHAR
STARTCHAR 2080
ENCODING 8320
SWIDTH 440 0
DWIDTH 11 0
BBX 8 10 1 -2
BITMAP
08
3E
67
63
43
C3
63
63
7E
3C
ENDCHAR
STARTCHAR 2081
ENCODING 8321
SWIDTH 320 0
DWIDTH 8 0
BBX 4 9 1 -2
BITMAP
30
70
F0
30
30
30
30
30
30
ENDCHAR
STARTCHAR 2082
ENCODING 8322
SWIDTH 400 0
DWIDTH 10 0
BBX 6 10 2 -2
BITMAP
30
FC
CC
8C
0C
38
70
C0
FC
FC
ENDCHAR
STARTCHAR 2083
ENCODING 8323
SWIDTH 400 0
DWIDTH 10 0
BBX 7 10 2 -2
BITMAP
FE
FE
0C
38
3C
3E
06
C6
FC
78
ENDCHAR
STARTCHAR 2084
ENCODING 8324
SWIDTH 440 0
DWIDTH 11 0
BBX 9 9 1 -2
BITMAP
0E00
0E00
1E00
3600
6600
FF80
FF80
0600
0600
ENDCHAR
STARTCHAR 2085
ENCODING 8325
SWIDTH 400 0
DWIDTH 10 0
BBX 7 9 2 -2
BITMAP
7C
7C
C0
F8
FC
06
86
FC
78
ENDCHAR
STARTCHAR 2086
ENCODING 8326
SWIDTH 400 0
DWIDTH 10 0
BBX 7 10 2 -2
BITMAP
08
7C
E0
D0
FC
C6
C6
C6
FC
78
ENDCHAR
STARTCHAR 2087
ENCODING 8327
SWIDTH 400 0
DWIDTH 10 0
BBX 8 9 1 -2
BITMAP
FF
FF
06
0C
18
18
18
30
30
ENDCHAR
STARTCHAR 2088
ENCODING 8328
SWIDTH 400 0
DWIDTH 10 0
BBX 8 9 1 -1
BITMAP
7E
66
62
7E
3E
67
E3
7E
3C
ENDCHAR
STARTCHAR 2089
ENCODING 8329
SWIDTH 400 0
DWIDTH 10 0
BBX 7 10 2 -2
BITMAP
10
FC
CC
86
C6
FE
76
0C
FC
F0
ENDCHAR
STARTCHAR 20AC
ENCODING 8364
SWIDTH 680 0
DWIDTH 17 0
BBX 14 16 2 0
BITMAP
01F8
07FC
0F08
1C00
3800
FFF0
FFE0
3000
3000
FFC0
FF80
3800
1C00
0F0C
07FC
01F0
ENDCHAR
STARTCHAR 2113
ENCODING 8467
SWIDTH 400 0
DWIDTH 10 0
BBX 8 16 1 0
BITMAP
1E
3F
33
33
33
33
37
3E
3C
78
F0
B0
30
39
3F
1E
ENDCHAR
STARTCHAR 2122
ENCODING 8482
SWIDTH 840 0
DWIDTH 21 0
BBX 19 9 1 9
BITMAP
FE70E0
FE70E0
1070E0
1079E0
1079E0
106F60
106F60
106E60
106660
ENDCHAR
STARTCHAR 2126
ENCODING 8486
SWIDTH 800 0
DWIDTH 20 0
BBX 18 18 1 0
BITMAP
03F000
0FFC00
1E1E00
380700
700380
600180
E001C0
E001C0
E001C0
E001C0
E00180
700380
700380
380700
1E1E00
073800
FF3FC0
FF3FC0
ENDCHAR
STARTCHAR 2160
ENCODING 8544
SWIDTH 520 0
DWIDTH 13 0
BBX 10 16 1 0
BITMAP
FFC0
FFC0
0E00
0E00
0E00
0E00
0E00
0E00
0E00
0E00
0E00
0E00
0E00
0E00
FFC0
FFC0
ENDCHAR
STARTCHAR 2161
ENCODING 8545
SWIDTH 760 0
DWIDTH 19 0
BBX 17 16 1 0
BITMAP
FFFF80
FFFF80
0C1800
0C1800
0C1800
0C1800
0C1800
0C1800
0C1800
0C1800
0C1800
0C1800
0C1800
0C1800
FFFF80
FFFF80
ENDCHAR
STARTCHAR 2162
ENCODING 8546
SWIDTH 1040 0
DWIDTH 26 0
BBX 24 16 1 0
BITMAP
FFFFFF
FFFFFF
0C1830
0C1830
0C1830
0C1830
0C1830
0C1830
0C1830
0C1830
0C1830
0C1830
0C1830
0C1830
FFFFFF
FFFFFF
ENDCHAR
STARTCHAR 2163
ENCODING 8547
SWIDTH 1000 0
DWIDTH 25 0
BBX 23 16 1 0
BITMAP
FFFFFE
FFFFFE
0CE070
0CE060
0C6060
0C70E0
0C70C0
0C30C0
0C39C0
0C1980
0C1980
0C1F80
0C0F00
0C0F00
FFFFFE
FFFFFE
ENDCHAR
STARTCHAR 2164
ENCODING 8548
SWIDTH 800 0
DWIDTH 20 0
BBX 18 16 1 0
BITMAP
FFFFC0
FFFFC0
1C0E00
0C0C00
0C0C00
0E1C00
061800
061800
073800
033000
033000
03F000
01E000
01E000
FFFFC0
FFFFC0
ENDCHAR
STARTCHAR 2165
ENCODING 8549
SWIDTH 1000 0
DWIDTH 25 0
BBX 23 16 1 0
BITMAP
FFFFFE
FFFFFE
1C0E70
0C0E70
0E0C70
0E0C70
061C70
071870
071870
033070
03B070
03B070
01E070
01E070
FFFFFE
FFFFFE
ENDCHAR
STARTCHAR 2166
ENCODING 8550
SWIDTH 1280 0
DWIDTH 32 0
BBX 30 16 1 0
BITMAP
FFFFFFFC
FFFFFFFC
1C0E60C0
0C0E60C0
0E0C60C0
0E1C60C0
061C60C0
071860C0
073860C0
033060C0
03B060C0
03F060C0
01E060C0
01E060C0
FFFFFFFC
FFFFFFFC
ENDCHAR
STARTCHAR 2167
ENCODING 8551
SWIDTH 1560 0
DWIDTH 39 0
BBX 36 16 1 0
BITMAP
FFFFFFFFF0
FFFFFFFFF0
1C0E60C380
0C0C60C380
0E0C60C380
0E1C60C380
061860C380
061860C380
073860C380
033060C380
033060C380
03F060C380
01E060C380
01E060C380
FFFFFFFFF0
FFFFFFFFF0
ENDCHAR
STARTCHAR 2168
ENCODING 8552
SWIDTH 960 0
DWIDTH 24 0
BBX 22 16 1 0
BITMAP
FFFFFC
FFFFFC
0CE0E0
0C70C0
0C39C0
0C1B80
0C1F00
0C0F00
0C0E00
0C1F00
0C1B80
0C39C0
0C71C0
0C60E0
FFFFFC
FFFFFC
ENDCHAR
STARTCHAR 2169
ENCODING 8553
SWIDTH 760 0
DWIDTH 19 0
BBX 17 16 1 0
BITMAP
FFFF80
FFFF80
1C1C00
0E1800
063800
077000
03E000
01C000
01C000
03E000
037000
063000
0E3800
1C1C00
FFFF80
FFFF80
ENDCHAR
STARTCHAR 216C
ENCODING 8556
SWIDTH 640 0
DWIDTH 16 0
BBX 14 16 1 0
BITMAP
FFC0
FFC0
0C00
0C00
0C00
0C00
0C00
0C00
0C00
0C0C
0C0C
0C0C
0C0C
0C0C
FFFC
FFFC
ENDCHAR
STARTCHAR 216D
ENCODING 8557
SWIDTH 720 0
DWIDTH 18 0
BBX 16 16 1 0
BITMAP
03E7
0FFF
1C1F
300F
7007
6000
6000
E000
E000
6000
6007
7007
380F
3E3F
0FFF
03E7
ENDCHAR
STARTCHAR 216E
ENCODING 8558
SWIDTH 720 0
DWIDTH 18 0
BBX 16 16 1 0
BITMAP
FFE0
FFF8
0C3C
0C0E
0C06
0C07
0C07
0C03
0C03
0C07
0C07
0C06
0C0E
0C3C
FFF8
FFE0
ENDCHAR
STARTCHAR 216F
ENCODING 8559
SWIDTH 1080 0
DWIDTH 27 0
BBX 24 16 1 0
BITMAP
FE007F
FF007F
0F0078
0F00F8
0F80D8
0D81D8
0DC198
0CC398
0CE318
0C6318
0C6718
0C7618
0C3E18
0C3C18
FF1CFF
FF18FF
ENDCHAR
STARTCHAR 2190
ENCODING 8592
SWIDTH 1040 0
DWIDTH 26 0
BBX 24 9 0 3
BITMAP
040000
0C0000
1C0000
3C0000
7FFFFF
FFFFFF
3C0000
1C0000
040000
ENDCHAR
STARTCHAR 2191
ENCODING 8593
SWIDTH 440 0
DWIDTH 11 0
BBX 9 24 1 -4
BITMAP
0800
0C00
1E00
3F00
7F80
7F80
8C00
0C00
0C00
0C00
0C00
0C00
0C00
0C00
0C00
0C00
0C00
0C00
0C00
0C00
0C00
0C00
0C00
0C00
ENDCHAR
STARTCHAR 2192
ENCODING 8594
SWIDTH 1040 0
DWIDTH 26 0
BBX 23 10 1 2
BITMAP
000040
000060
000070
00007C
FFFFFE
FFFFFE
00007C
000070
000060
000040
ENDCHAR
STARTCHAR 2193
ENCODING 8595
SWIDTH 440 0
DWIDTH 11 0
BBX 10 24 0 -4
BITMAP
0C00
0C00
0C00
0C00
0C00
0C00
0C00
0C00
0C00
0C00
0C00
0C00
0C00
0C00
0C00
0C00
0C00
0C00
FFC0
7F80
3F00
1E00
0C00
0400
ENDCHAR
STARTCHAR 2196
ENCODING 8598
SWIDTH 880 0
DWIDTH 22 0
BBX 18 18 1 0
BITMAP
FE0000
FC0000
F80000
F80000
FC0000
CE0000
870000
038000
01C000
00E000
007000
003800
001C00
000E00
000700
000380
0001C0
000080
ENDCHAR
STARTCHAR 2197
ENCODING 8599
SWIDTH 760 0
DWIDTH 19 0
BBX 18 18 -1 0
BITMAP
001FC0
000FC0
0007C0
0007C0
000FC0
001CC0
003840
007000
00E000
01C000
038000
070000
0E0000
1C0000
380000
700000
E00000
400000
ENDCHAR
STARTCHAR 2198
ENCODING 8600
SWIDTH 880 0
DWIDTH 22 0
BBX 18 18 1 0
BITMAP
400000
E00000
700000
380000
1C0000
0E0000
070000
038000
01C000
00E000
007000
003840
001CC0
000EC0
0007C0
0003C0
0007C0
000FC0
ENDCHAR
STARTCHAR 2199
ENCODING 8601
SWIDTH 760 0
DWIDTH 19 0
BBX 18 18 1 0
BITMAP
000080
0001C0
000380
000700
000E00
001C00
003800
007000
00E000
01C000
038000
870000
CE0000
FC0000
F80000
F80000
FC0000
FE0000
ENDCHAR
STARTCHAR 21A9
ENCODING 8617
SWIDTH 840 0
DWIDTH 21 0
BBX 20 14 0 2
BITMAP
003F80
003FE0
0000E0
000030
000030
080030
180030
380060
7FFFE0
FFFF80
380000
180000
080000
080000
ENDCHAR
STARTCHAR 21B0
ENCODING 8624
SWIDTH 760 0
DWIDTH 19 0
BBX 15 18 2 0
BITMAP
0800
1800
3800
7800
FFFE
FFFE
7806
3806
0806
0006
0006
0006
0006
0006
0006
0006
0006
0006
ENDCHAR
STARTCHAR 21B1
ENCODING 8625
SWIDTH 720 0
DWIDTH 18 0
BBX 16 18 1 0
BITMAP
0010
0018
001C
001E
FFFF
FFFF
C01E
C01C
C018
C000
C000
C000
C000
C000
C000
C000
C000
C000
ENDCHAR
STARTCHAR 21B2
ENCODING 8626
SWIDTH 760 0
DWIDTH 19 0
BBX 17 18 0 0
BITMAP
000180
000180
000180
000180
000180
000180
000180
000180
000180
080180
180180
380180
FFFF80
FFFF80
780000
380000
080000
080000
ENDCHAR
STARTCHAR 21B3
ENCODING 8627
SWIDTH 840 0
DWIDTH 21 0
BBX 17 18 2 0
BITMAP
C00000
C00000
C00000
C00000
C00000
C00000
C00000
C00000
C00000
C00800
C00C00
C00E00
FFFF80
FFFF80
000F00
000E00
000800
001000
ENDCHAR
STARTCHAR 21B4
ENCODING 8628
SWIDTH 800 0
DWIDTH 20 0
BBX 18 18 1 0
BITMAP
FFFE00
FFFE00
000600
000600
000600
000600
000600
000600
000600
000600
000600
000600
000600
003FC0
001F80
000F00
000600
000400
ENDCHAR
STARTCHAR 21C6
ENCODING 8646
SWIDTH 1120 0
DWIDTH 28 0
BBX 24 18 2 0
BITMAP
080000
180000
780000
FFFFFF
FFFFFF
780000
380000
180000
080000
000020
000010
00001C
00001E
FFFFFF
FFFFFF
00001C
000018
000020
ENDCHAR
STARTCHAR 2202
ENCODING 8706
SWIDTH 600 0
DWIDTH 15 0
BBX 13 18 1 0
BITMAP
3F00
7FC0
61E0
0070
0030
0038
0038
0FB8
3FF8
7078
6038
E018
E038
E030
6070
78E0
3FC0
0F80
ENDCHAR
STARTCHAR 2206
ENCODING 8710
SWIDTH 680 0
DWIDTH 17 0
BBX 16 18 0 0
BITMAP
01C0
03C0
03E0
03E0
0760
0670
0E30
0E30
0C38
1C18
181C
181C
380C
300E
7006
7007
7FFF
FFFF
ENDCHAR
STARTCHAR 220F
ENCODING 8719
SWIDTH 680 0
DWIDTH 17 0
BBX 13 18 2 0
BITMAP
FFF8
FFF8
E018
E018
E018
E018
E018
E018
E018
E018
E018
E018
E018
E018
E018
E018
E018
E018
ENDCHAR
STARTCHAR 2211
ENCODING 8721
SWIDTH 560 0
DWIDTH 14 0
BBX 13 18 1 0
BITMAP
FFF8
FFF8
F000
7800
3C00
1E00
0F00
0780
03C0
03C0
0780
0F00
1E00
3800
7000
E000
FFF8
FFF8
ENDCHAR
STARTCHAR 2212
ENCODING 8722
SWIDTH 520 0
DWIDTH 13 0
BBX 11 2 1 6
BITMAP
FFE0
FFE0
ENDCHAR
STARTCHAR 2215
ENCODING 8725
SWIDTH 400 0
DWIDTH 10 0
BBX 10 16 0 0
BITMAP
00C0
0180
0180
0300
0300
0600
0600
0C00
0C00
1800
1800
3000
3000
6000
6000
E000
ENDCHAR
STARTCHAR 2219
ENCODING 8729
SWIDTH 280 0
DWIDTH 7 0
BBX 3 4 2 5
BITMAP
E0
E0
E0
E0
ENDCHAR
STARTCHAR 221A
ENCODING 8730
SWIDTH 680 0
DWIDTH 17 0
BBX 16 22 1 0
BITMAP
001F
001F
0018
0038
0038
0030
0030
0070
0060
E060
60E0
70C0
70C0
31C0
3980
3980
1B80
1F00
1F00
0F00
0E00
0E00
ENDCHAR
STARTCHAR 221E
ENCODING 8734
SWIDTH 800 0
DWIDTH 20 0
BBX 18 8 1 3
BITMAP
3E0F00
7F3F80
E3F1C0
C1E0C0
C1E0C0
E3F1C0
7F3F80
3C0F00
ENDCHAR
STARTCHAR 222B
ENCODING 8747
SWIDTH 320 0
DWIDTH 8 0
BBX 8 23 0 -5
BITMAP
07
1F
1C
18
18
18
18
18
18
18
18
18
18
18
18
18
18
18
18
18
38
F0
E0
ENDCHAR
STARTCHAR 2248
ENCODING 8776
SWIDTH 560 0
DWIDTH 14 0
BBX 12 8 1 3
BITMAP
7E30
FFF0
47E0
0000
3800
FE30
C7F0
01E0
ENDCHAR
STARTCHAR 2260
ENCODING 8800
SWIDTH 600 0
DWIDTH 15 0
BBX 11 12 2 1
BITMAP
00E0
01C0
FFE0
FFE0
0600
0E00
0C00
FFE0
FFE0
7000
6000
E000
ENDCHAR
STARTCHAR 2264
ENCODING 8804
SWIDTH 560 0
DWIDTH 14 0
BBX 10 12 2 1
BITMAP
00C0
03C0
1F80
FC00
E000
F800
3F00
07C0
00C0
0000
FFC0
FFC0
ENDCHAR
STARTCHAR 2265
ENCODING 8805
SWIDTH 560 0
DWIDTH 14 0
BBX 10 12 2 1
BITMAP
8000
F000
7E00
0FC0
01C0
07C0
3F00
F800
C000
0000
FFC0
FFC0
ENDCHAR
STARTCHAR 22C5
ENCODING 8901
SWIDTH 280 0
DWIDTH 7 0
BBX 3 4 2 5
BITMAP
E0
E0
E0
E0
ENDCHAR
STARTCHAR 24C5
ENCODING 9413
SWIDTH 840 0
DWIDTH 21 0
BBX 18 18 1 0
BITMAP
03F000
0FFC00
1C0F00
380380
73F180
63F8C0
C31CC0
C308C0
C3F8C0
C3F0C0
C300C0
6300C0
6301C0
730180
380300
1C0E00
0FFC00
03F000
ENDCHAR
STARTCHAR 25A0
ENCODING 9632
SWIDTH 920 0
DWIDTH 23 0
BBX 17 18 3 0
BITMAP
FFFF80
FFFF80
FFFF80
FFFF80
FFFF80
FFFF80
FFFF80
FFFF80
FFFF80
FFFF80
FFFF80
FFFF80
FFFF80
FFFF80
FFFF80
FFFF80
FFFF80
FFFF80
ENDCHAR
STARTCHAR 25A1
ENCODING 9633
SWIDTH 920 0
DWIDTH 23 0
BBX 17 18 3 0
BITMAP
FFFF80
FFFF80
C00180
C00180
C00180
C00180
C00180
C00180
C00180
C00180
C00180
C00180
C00180
C00180
C00180
C00180
FFFF80
FFFF80
ENDCHAR
STARTCHAR 25B2
ENCODING 9650
SWIDTH 840 0
DWIDTH 21 0
BBX 21 18 0 0
BITMAP
002000
002000
007000
00F800
00F800
01FC00
01FC00
03FE00
03FE00
07FF00
0FFF80
0FFF80
1FFFC0
1FFFC0
3FFFE0
7FFFE0
7FFFF0
FFFFF8
ENDCHAR
STARTCHAR 25B3
ENCODING 9651
SWIDTH 840 0
DWIDTH 21 0
BBX 21 18 0 0
BITMAP
002000
002000
007000
00F800
00D800
01DC00
018C00
030E00
030600
060300
0E0380
0C0180
1C01C0
1800C0
3000E0
700060
7FFFF0
FFFFF8
ENDCHAR
STARTCHAR 25CA
ENCODING 9674
SWIDTH 560 0
DWIDTH 14 0
BBX 12 18 1 0
BITMAP
0600
0F00
0F00
1F80
39C0
31C0
70E0
6060
E070
E070
6060
70E0
31C0
3980
1F80
1F00
0F00
0600
ENDCHAR
STARTCHAR 25CB
ENCODING 9675
SWIDTH 840 0
DWIDTH 21 0
BBX 19 18 1 0
BITMAP
03F000
0FFE00
1E0F00
380380
700180
6000C0
6000C0
C000E0
C000E0
C00060
C000E0
E000C0
6000C0
700180
380380
1E0F00
0FFC00
03F000
ENDCHAR
STARTCHAR 25CF
ENCODING 9679
SWIDTH 840 0
DWIDTH 21 0
BBX 19 18 1 0
BITMAP
03F000
0FFE00
1FFF00
3FFF80
7FFF80
7FFFC0
7FFFC0
FFFFE0
FFFFE0
FFFFE0
FFFFE0
FFFFC0
7FFFC0
7FFF80
3FFF80
1FFF00
0FFC00
03F000
ENDCHAR
STARTCHAR 262E
ENCODING 9774
SWIDTH 840 0
DWIDTH 21 0
BBX 18 18 1 0
BITMAP
03F000
0FFC00
1CCF00
38C380
70C180
60C1C0
40C0C0
C0C0C0
C1E0C0
C3F0C0
C7F8C0
EEDCC0
7CCEC0
78C780
38C300
1CCF00
0FFC00
03F000
ENDCHAR
STARTCHAR 2713
ENCODING 10003
SWIDTH 960 0
DWIDTH 24 0
BBX 23 18 1 0
BITMAP
000004
00000E
00001C
000038
000070
0000E0
0001C0
000380
000700
400E00
E01C00
603800
307000
38E000
1DC000
0F8000
070000
020000
ENDCHAR
STARTCHAR 2715
ENCODING 10005
SWIDTH 760 0
DWIDTH 19 0
BBX 17 18 1 0
BITMAP
400100
E00380
700700
380E00
1C1C00
0E3800
067000
07E000
03C000
03C000
03E000
067000
0C3800
181C00
380E00
700700
E00380
400100
ENDCHAR
STARTCHAR 2780
ENCODING 10112
SWIDTH 840 0
DWIDTH 21 0
BBX 18 18 1 0
BITMAP
03F000
0FFC00
1C0F00
380380
706180
60E0C0
C3E0C0
C060C0
C060C0
C060C0
C060C0
6060C0
6061C0
700180
380300
1C0F00
0FFC00
03F000
ENDCHAR
STARTCHAR 2781
ENCODING 10113
SWIDTH 840 0
DWIDTH 21 0
BBX 18 18 1 0
BITMAP
03F000
0FFC00
1C0F00
380380
704180
61F1C0
6330C0
C330C0
C070C0
C0E0C0
C380C0
63F0C0
63F1C0
700180
380300
1C0E00
0FFC00
03F000
ENDCHAR
STARTCHAR 2782
ENCODING 10114
SWIDTH 840 0
DWIDTH 21 0
BBX 18 18 1 0
BITMAP
03F000
0FFC00
1C0F00
380380
73F180
63F0C0
C070C0
C0E0C0
C0F0C0
C030C0
C018C0
E338C0
63F0C0
70C180
380300
1C0F00
0FFC00
03F000
ENDCHAR
STARTCHAR 2783
ENCODING 10115
SWIDTH 840 0
DWIDTH 21 0
BBX 18 18 1 0
BITMAP
03F000
0FFC00
1C0F00
380380
706180
60E1C0
60E0C0
C1E0C0
C360C0
C660C0
C7F8C0
E7F8C0
6060C0
700180
380300
1C0F00
0FFC00
03F000
ENDCHAR
STARTCHAR 2784
ENCODING 10116
SWIDTH 840 0
DWIDTH 21 0
BBX 18 18 1 0
BITMAP
03F000
0FFC00
1C0F00
300380
71F180
61F0C0
C300C0
C300C0
C3F0C0
C030C0
C018C0
E730C0
63F0C0
70C180
380300
1C0F00
0FFC00
03F000
ENDCHAR
STARTCHAR 2785
ENCODING 10117
SWIDTH 840 0
DWIDTH 21 0
BBX 18 18 1 0
BITMAP
03F000
0FFC00
1C0F00
380380
700180
61F1C0
6300C0
C240C0
C7F0C0
C738C0
C618C0
E330C0
63F0C0
70C180
380300
1C0F00
0FFC00
03F000
ENDCHAR
STARTCHAR 2786
ENCODING 10118
SWIDTH 840 0
DWIDTH 21 0
BBX 18 18 1 0
BITMAP
03F000
0FFC00
1C0F00
300380
63F980
63F8C0
C030C0
C060C0
C060C0
C0C0C0
C0C0C0
6180C0
6181C0
700180
380300
1C0E00
0FFC00
03F000
ENDCHAR
STARTCHAR 2787
ENCODING 10119
SWIDTH 840 0
DWIDTH 21 0
BBX 18 18 1 0
BITMAP
03F000
0FFC00
1C0F00
380380
704180
63F1C0
6338C0
C330C0
C1F0C0
C3F0C0
C318C0
6318C0
63F0C0
70C180
380300
1C0F00
0FFC00
03F000
ENDCHAR
STARTCHAR 2788
ENCODING 10120
SWIDTH 840 0
DWIDTH 21 0
BBX 18 18 1 0
BITMAP
03F000
0FFC00
1C0F00
380380
704180
63F1C0
C338C0
C218C0
C338C0
C3F8C0
C098C0
E030C0
63E0C0
708180
380300
1C0F00
0FFC00
03F000
ENDCHAR
STARTCHAR E000
ENCODING 57344
SWIDTH 800 0
DWIDTH 20 0
BBX 18 18 1 0
BITMAP
1FFFC0
1FFFC0
1C0000
1C0000
1C0000
1C0000
1C0000
1C0000
1C0000
1C0000
1C0000
1C0000
1C0000
FF8000
3E0000
3E0000
1C0000
080000
ENDCHAR
STARTCHAR E001
ENCODING 57345
SWIDTH 1080 0
DWIDTH 27 0
BBX 24 18 2 0
BITMAP
007E00
01FF00
078200
0E0000
0C0010
180038
18007C
18007E
3800FF
FF0018
FE0018
7C0030
380030
100070
0000E0
0083C0
01FF80
007E00
ENDCHAR
STARTCHAR E002
ENCODING 57346
SWIDTH 960 0
DWIDTH 24 0
BBX 22 18 1 0
BITMAP
01F000
0FFC00
1E0800
380000
300040
6000E0
6001F0
E003F8
C007FC
C00060
E000E0
6000C0
6000C0
700180
380380
1E0F00
0FFE00
03F000
ENDCHAR
STARTCHAR FB00
ENCODING 64256
SWIDTH 640 0
DWIDTH 16 0
BBX 16 18 0 0
BITMAP
0F0F
1F1F
1C1C
1818
1818
1818
FFFF
FFFF
1818
1818
1818
1818
1818
1818
1818
1818
1818
1818
ENDCHAR
STARTCHAR FB01
ENCODING 64257
SWIDTH 600 0
DWIDTH 15 0
BBX 14 18 0 0
BITMAP
0F18
1F3C
1C18
1800
1800
1800
FFF8
FFF8
1818
1818
1818
1818
1818
1818
1818
1818
1818
1818
ENDCHAR
STARTCHAR FB02
ENCODING 64258
SWIDTH 600 0
DWIDTH 15 0
BBX 13 18 0 0
BITMAP
0718
0F18
1C18
1818
1818
1818
FFF8
FFF8
1818
1818
1818
1818
1818
1818
1818
1818
1818
1818
ENDCHAR
STARTCHAR FB03
ENCODING 64259
SWIDTH 920 0
DWIDTH 23 0
BBX 22 18 0 0
BITMAP
0F0F18
1F1F3C
1C1C18
181800
181800
181800
FFFFF8
FFFFF8
181818
181818
181818
181818
181818
181818
181818
181818
181818
181818
ENDCHAR
STARTCHAR FB04
ENCODING 64260
SWIDTH 920 0
DWIDTH 23 0
BBX 21 18 0 0
BITMAP
070718
0F1F18
1C1C18
181818
181818
181818
FFFFF8
FFFFF8
181818
181818
181818
181818
181818
181818
181818
181818
181818
181818
ENDCHAR
STARTCHAR FEFF
ENCODING 65279
SWIDTH 0 0
DWIDTH 0 0
BBX 0 0 0 0
BITMAP
ENDCHAR
ENDFONT
